# xmcd
#
# Track frame offsets: 
#        150
#        52060
#        108295
#        162170
#        206587
#
# Disc length: 3490 seconds
#
# Revision: 3
# Processed by: cddbd v1.5.2PL0 Copyright (c) Steve Scherf et al.
# Submitted via: ExactAudioCopy v0.95b4
#
DISCID=3e0da005
DTITLE=Art Pepper - Thursday Night at the Village Vanguard
DYEAR=1977
DGENRE=Jazz
TTITLE0=Valse triste
TTITLE1=Goodbye
TTITLE2=Blues for les
TTITLE3=My friend John
TTITLE4=Blues for heard
EXTD=YEAR: 1977
EXTT0=
EXTT1=
EXTT2=
EXTT3=
EXTT4=
PLAYORDER=
